<?xml version="1.0" encoding="UTF-8"?>
<svg xmlns="http://www.w3.org/2000/svg" version="1.1" width="1000" height="1000" viewBox="0 0 1000 1000"><rect x="0" y="0" width="1000" height="1000" fill="#ffffff"/><g transform="scale(40)"><g transform="translate(0,0)"><g><g transform="translate(3.5,3.5)"><path fill-rule="evenodd" d="M-3.5 -3.5L3.5 -3.5L3.5 3.5L-3.5 3.5ZM-2.5 -2.5L-2.5 2.5L2.5 2.5L2.5 -2.5Z" fill="#f1e400"/><path fill-rule="evenodd" d="M-1.5 -1.5L1.5 -1.5L1.5 1.5L-1.5 1.5Z" fill="#fff200"/></g></g><g><g transform="translate(21.5,3.5)"><g transform="rotate(90)"><path fill-rule="evenodd" d="M-3.5 -3.5L3.5 -3.5L3.5 3.5L-3.5 3.5ZM-2.5 -2.5L-2.5 2.5L2.5 2.5L2.5 -2.5Z" fill="#f1e400"/><path fill-rule="evenodd" d="M-1.5 -1.5L1.5 -1.5L1.5 1.5L-1.5 1.5Z" fill="#fff200"/></g></g></g><g><g transform="translate(3.5,21.5)"><g transform="rotate(-90)"><path fill-rule="evenodd" d="M-3.5 -3.5L3.5 -3.5L3.5 3.5L-3.5 3.5ZM-2.5 -2.5L-2.5 2.5L2.5 2.5L2.5 -2.5Z" fill="#f1e400"/><path fill-rule="evenodd" d="M-1.5 -1.5L1.5 -1.5L1.5 1.5L-1.5 1.5Z" fill="#fff200"/></g></g></g><path fill-rule="evenodd" d="M10 0L10 1L12 1L12 2L14 2L14 3L13 3L13 4L12 4L12 3L11 3L11 2L9 2L9 1L8 1L8 4L10 4L10 5L9 5L9 6L8 6L8 10L6 10L6 11L3 11L3 9L2 9L2 12L1 12L1 11L0 11L0 17L1 17L1 14L2 14L2 16L3 16L3 17L5 17L5 15L7 15L7 16L6 16L6 17L8 17L8 18L9 18L9 21L10 21L10 22L9 22L9 23L10 23L10 22L11 22L11 24L12 24L12 25L15 25L15 24L12 24L12 23L13 23L13 22L11 22L11 21L10 21L10 20L11 20L11 19L12 19L12 21L13 21L13 20L16 20L16 21L18 21L18 22L17 22L17 23L16 23L16 22L15 22L15 21L14 21L14 22L15 22L15 23L16 23L16 24L17 24L17 25L18 25L18 24L19 24L19 25L21 25L21 22L22 22L22 23L23 23L23 24L24 24L24 25L25 25L25 24L24 24L24 23L25 23L25 21L22 21L22 20L21 20L21 18L22 18L22 16L24 16L24 19L25 19L25 12L24 12L24 13L23 13L23 12L22 12L22 11L23 11L23 9L24 9L24 10L25 10L25 9L24 9L24 8L21 8L21 10L20 10L20 9L19 9L19 8L17 8L17 11L14 11L14 10L15 10L15 9L16 9L16 7L17 7L17 6L16 6L16 5L17 5L17 4L16 4L16 5L15 5L15 6L14 6L14 5L13 5L13 4L15 4L15 2L14 2L14 1L15 1L15 0L13 0L13 1L12 1L12 0ZM16 2L16 3L17 3L17 2ZM10 3L10 4L11 4L11 3ZM10 5L10 6L9 6L9 10L8 10L8 11L6 11L6 12L5 12L5 13L6 13L6 14L7 14L7 15L8 15L8 17L9 17L9 18L10 18L10 19L11 19L11 18L12 18L12 19L14 19L14 18L15 18L15 19L16 19L16 17L15 17L15 14L14 14L14 13L15 13L15 12L14 12L14 11L12 11L12 12L10 12L10 11L9 11L9 10L11 10L11 9L12 9L12 10L14 10L14 9L15 9L15 8L13 8L13 7L14 7L14 6L13 6L13 5ZM10 6L10 7L11 7L11 8L10 8L10 9L11 9L11 8L12 8L12 9L13 9L13 8L12 8L12 7L13 7L13 6L12 6L12 7L11 7L11 6ZM15 6L15 7L16 7L16 6ZM0 8L0 9L1 9L1 8ZM6 8L6 9L7 9L7 8ZM4 9L4 10L5 10L5 9ZM18 9L18 10L19 10L19 11L17 11L17 12L16 12L16 13L17 13L17 14L16 14L16 16L20 16L20 14L19 14L19 15L17 15L17 14L18 14L18 13L21 13L21 11L22 11L22 10L21 10L21 11L20 11L20 10L19 10L19 9ZM2 12L2 14L3 14L3 16L4 16L4 15L5 15L5 14L3 14L3 13L4 13L4 12ZM6 12L6 13L7 13L7 14L8 14L8 13L9 13L9 14L10 14L10 12ZM12 12L12 13L14 13L14 12ZM17 12L17 13L18 13L18 12ZM22 13L22 14L21 14L21 15L22 15L22 14L23 14L23 13ZM11 14L11 15L9 15L9 16L10 16L10 17L12 17L12 18L13 18L13 17L14 17L14 16L13 16L13 17L12 17L12 15L14 15L14 14ZM17 17L17 20L20 20L20 17ZM18 18L18 19L19 19L19 18ZM19 21L19 23L20 23L20 22L21 22L21 21ZM23 22L23 23L24 23L24 22ZM8 24L8 25L10 25L10 24Z" fill="#00ebfe"/></g></g></svg>
